<svg xmlns="http://www.w3.org/2000/svg" width="16" height="16" viewBox="0 0 16 16">
  <defs>
    <style>
      .cls-1 {
        fill: #fff;
        fill-rule: evenodd;
      }
    </style>
  </defs>
  <path id="Icon" class="cls-1" d="M317,143h-5c-0.2,0,0,.2,0,0v-5a1.285,1.285,0,0,0-1-1h-2a1.285,1.285,0,0,0-1,1v5c0,0.2.2,0,0,0h-5a1.285,1.285,0,0,0-1,1v2a1.285,1.285,0,0,0,1,1h5c0.2,0,0-.2,0,0v5a1.285,1.285,0,0,0,1,1h2a1.285,1.285,0,0,0,1-1v-5c0-.2-0.2,0,0,0h5a1.285,1.285,0,0,0,1-1v-2A1.285,1.285,0,0,0,317,143Z" transform="translate(-302 -137)"/>
</svg>
