<svg xmlns="http://www.w3.org/2000/svg" width="20" height="23" viewBox="0 0 20 23">
  <defs>
    <style>
      .cls-1 {
        fill: #c7c7c7;
        fill-rule: evenodd;
      }
    </style>
  </defs>
  <path id="Delete" class="cls-1" d="M389,140v13a4,4,0,0,1-4,4H375a4,4,0,0,1-4-4V140h-1v-2h5a4,4,0,0,1,4-4h2a4,4,0,0,1,4,4h5v2h-1Zm-8-4h-2a2,2,0,0,0-2,2h6A2,2,0,0,0,381,136Zm6,4H373v13a2,2,0,0,0,2,2h10a2,2,0,0,0,2-2V140Zm-3,13a1,1,0,0,1-1-1v-9a1,1,0,0,1,2,0v9A1,1,0,0,1,384,153Zm-4,0a1,1,0,0,1-1-1v-9a1,1,0,0,1,2,0v9A1,1,0,0,1,380,153Zm-4,0a1,1,0,0,1-1-1v-9a1,1,0,0,1,2,0v9A1,1,0,0,1,376,153Z" transform="translate(-370 -134)"/>
</svg>
