<svg xmlns="http://www.w3.org/2000/svg" width="134" height="166" viewBox="0 0 134 166">
  <defs>
    <style>
      .cls-1 {
        fill: #fff;
        fill-rule: evenodd;
      }
    </style>
  </defs>
  <path id="Logo" class="cls-1" d="M614.232,552H505.768A12.809,12.809,0,0,1,493,539.19V398.81A12.809,12.809,0,0,1,505.768,386h69.011a2.918,2.918,0,0,1,2.01.815L626.1,435.306a3.091,3.091,0,0,1,.9,2.1V539.19A12.809,12.809,0,0,1,614.232,552Zm-87.816-51.134a2.088,2.088,0,0,1,2.955,0l6.833,6.84,4.432-4.437-3.139-3.143a2.09,2.09,0,1,1,2.954-2.957l3.14,3.143,4.433-4.438-6.833-6.84a2.09,2.09,0,0,1,2.954-2.957l6.834,6.84,4.36-4.365-14.405-14.42L513.3,501.79l14.406,14.42,5.54-5.546-6.833-6.84A2.093,2.093,0,0,1,526.416,500.866Zm52.844,5.715,4.863-4.867-54.531-54.585L524.729,452Zm3.839,2.074,17.19,5.947-6.108-17.04-5.6,5.607c-0.008.008-.014,0.017-0.022,0.025s-0.017.015-.026,0.023Zm-48.506-72.449-6.292-6.3a4.59,4.59,0,0,0-3.165-1.4,3.586,3.586,0,0,0-2.585,1.111l-6.95,6.957a4.424,4.424,0,0,0-.119,6.167l6.292,6.3Zm-2.046,7.965,54.531,54.585,5-5.006-54.531-54.585Zm41.521,25.634,3.506-3.51-6.834-6.84A2.09,2.09,0,1,1,573.7,456.5l6.833,6.84,4.433-4.437-3.14-3.143a2.091,2.091,0,0,1,2.955-2.958l3.14,3.143,4.432-4.437-6.833-6.84a2.091,2.091,0,0,1,2.955-2.958l6.833,6.84,4.432-4.437-3.139-3.142a2.1,2.1,0,0,1-.456-0.685H584.66a12.647,12.647,0,0,1-7.469-2.445l-17.529,17.546Zm27.753-29.521,0.869,0.87,0.869-.87h-1.738Zm19.383,0H609.469l-32.447,32.479,19.489,19.508a0.4,0.4,0,0,1,.026.032,2.1,2.1,0,0,1,.464.741L605.7,517.3a2.091,2.091,0,0,1-1.967,2.8,2.061,2.061,0,0,1-.682-0.115l-24.469-8.465a2.064,2.064,0,0,1-.773-0.482,0.166,0.166,0,0,1-.021-0.016L558.294,491.51l-29.108,29.137a2.09,2.09,0,0,1-2.955,0l-17.36-17.378a2.09,2.09,0,0,1,0-2.957l29.108-29.138L512.527,445.7a8.561,8.561,0,0,1,.118-12.082l6.951-6.957c3.24-3.244,8.253-3.118,11.659.292l25.452,25.477,17.545-17.562a12.746,12.746,0,0,1-2.361-7.391v-35.7H505.768a7.007,7.007,0,0,0-6.993,7.016v140.4a7.008,7.008,0,0,0,6.993,7.017H614.21a7.009,7.009,0,0,0,6.994-7.017V440.284Z" transform="translate(-493 -386)"/>
</svg>
