<svg xmlns="http://www.w3.org/2000/svg" width="15" height="16" viewBox="0 0 15 16">
  <defs>
    <style>
      .cls-1 {
        fill: #00b4ff;
        fill-rule: evenodd;
      }
    </style>
  </defs>
  <path id="Icon" class="cls-1" d="M156.807,379.394a7.574,7.574,0,0,0-2.443-2.379,0.593,0.593,0,0,0-.9.511v1.232a0.6,0.6,0,0,0,.234.473,5.37,5.37,0,0,1,2.1,4.238,5.3,5.3,0,1,1-10.594,0,5.37,5.37,0,0,1,2.1-4.238,0.6,0.6,0,0,0,.234-0.473v-1.232a0.593,0.593,0,0,0-.9-0.511A7.529,7.529,0,0,0,143,383.469,7.5,7.5,0,1,0,156.807,379.394Zm-7,4.752h1.386a0.558,0.558,0,0,0,.556-0.558v-8.029a0.559,0.559,0,0,0-.556-0.559h-1.386a0.557,0.557,0,0,0-.556.559v8.029A0.558,0.558,0,0,0,149.807,384.146Z" transform="translate(-143 -375)"/>
</svg>
