<svg xmlns="http://www.w3.org/2000/svg" width="11.219" height="11.844" viewBox="0 0 11.219 11.844">
  <defs>
    <style>
      .cls-1 {
        fill: #515151;
        fill-rule: evenodd;
      }
    </style>
  </defs>
  <path id="Bold" class="cls-1" d="M293.6,132a1.529,1.529,0,0,0-1.025.278,0.919,0.919,0,0,0-.312.718,0.936,0.936,0,0,0,.307.728,1.528,1.528,0,0,0,1.03.278h5.879a5.4,5.4,0,0,0,1.807-.259,4.023,4.023,0,0,0,1.221-.669,2.353,2.353,0,0,0,.625-0.791,3.01,3.01,0,0,0,.342-1.416,3.163,3.163,0,0,0-.474-1.714,4.14,4.14,0,0,0-1.421-1.323,3.3,3.3,0,0,0,.772-1.064,3.024,3.024,0,0,0,.253-1.231,3.12,3.12,0,0,0-1.093-2.378,4.118,4.118,0,0,0-2.891-1H293.6a1.522,1.522,0,0,0-1.03.279,1.015,1.015,0,0,0,0,1.455,1.528,1.528,0,0,0,1.03.278h0.313V132H293.6Zm2.315-7.832h2.607a2.541,2.541,0,0,1,1.582.4,1.155,1.155,0,0,1,.5.922,1.2,1.2,0,0,1-.527,1,3.139,3.139,0,0,1-1.963.6h-2.2v-2.91Zm0,4.912h2.646a3.449,3.449,0,0,1,2.159.586,1.593,1.593,0,0,1,.752,1.191,0.9,0.9,0,0,1-.381.782,3.038,3.038,0,0,1-1.719.361h-3.457v-2.92Z" transform="translate(-292.25 -122.156)"/>
</svg>
