<svg id="Color" xmlns="http://www.w3.org/2000/svg" width="16.313" height="17.438" viewBox="0 0 16.313 17.438">
  <defs>
    <style>
      .cls-1 {
        fill: #00b4ff;
      }

      .cls-1, .cls-2, .cls-3, .cls-4, .cls-5 {
        fill-rule: evenodd;
      }

      .cls-2 {
        fill: #ec14da;
      }

      .cls-3 {
        fill: #fbaf5d;
      }

      .cls-4 {
        fill: #ff0;
      }

      .cls-5 {
        fill: lime;
      }
    </style>
  </defs>
  <path id="Blue" class="cls-1" d="M664,119h2a2,2,0,0,1,2,2v13c0,1.1-.895-2-2-2h-2c-1.105,0-2,2.1-2,1V121A2,2,0,0,1,664,119Z" transform="translate(-661.625 -119)"/>
  <path id="Purple" class="cls-2" d="M667.653,119.209l1.932,0.518A2,2,0,0,1,671,122.176l-3.365,12.557c-1.382-1.673-.382-2.3-1.449-2.585l-1.932-.518c-1.067-.286-2.7,2.617-2.414,1.55l3.364-12.557A2,2,0,0,1,667.653,119.209Z" transform="translate(-661.625 -119)"/>
  <path id="Orange" class="cls-3" d="M671.139,120.377l1.732,1a2,2,0,0,1,.732,2.732l-6.5,11.258c-0.69-2.88,1.224-3.715.268-4.268l-1.732-1c-0.957-.552-4.285,3.225-3.732,2.268l6.5-11.258A2,2,0,0,1,671.139,120.377Z" transform="translate(-661.625 -119)"/>
  <path id="Yellow" class="cls-4" d="M674.208,122.373l1.414,1.415a2,2,0,0,1,0,2.828l-9.192,9.192c-0.267-2.541,1.953-3.218,1.172-4l-1.415-1.414c-0.781-.781-4.781,1.953-4,1.172l9.193-9.193A2,2,0,0,1,674.208,122.373Z" transform="translate(-661.625 -119)"/>
  <path id="Green" class="cls-5" d="M676.644,125.182l1,1.732a2,2,0,0,1-.732,2.732l-11.258,6.5a2,2,0,0,1-2.732-.732l-1-1.732a2,2,0,0,1,.732-2.732l11.258-6.5A2,2,0,0,1,676.644,125.182Z" transform="translate(-661.625 -119)"/>
</svg>
