<svg xmlns="http://www.w3.org/2000/svg" width="15" height="12" viewBox="0 0 15 12">
  <defs>
    <style>
      .cls-1 {
        fill: #515151;
        fill-rule: evenodd;
      }
    </style>
  </defs>
  <path id="Picture" class="cls-1" d="M640.762,122H626.238a0.239,0.239,0,0,0-.238.241v11.518a0.239,0.239,0,0,0,.238.241h14.524a0.239,0.239,0,0,0,.238-0.241V122.241A0.239,0.239,0,0,0,640.762,122Zm-1.188,10.078-3.269-3.433a0.1,0.1,0,0,0-.134-0.005l-2.267,2.023-2.9-3.618a0.1,0.1,0,0,0-.078-0.037,0.1,0.1,0,0,0-.076.04L628,132v-8h11v8Zm-3.59-5.15a1.183,1.183,0,1,0-1.165-1.183A1.174,1.174,0,0,0,635.984,126.928Z" transform="translate(-626 -122)"/>
</svg>
