<svg xmlns="http://www.w3.org/2000/svg" width="10.844" height="11.844" viewBox="0 0 10.844 11.844">
  <defs>
    <style>
      .cls-1 {
        fill: #515151;
        fill-rule: evenodd;
      }
    </style>
  </defs>
  <path id="Italic" class="cls-1" d="M334.123,124.166a1.8,1.8,0,0,0,.986-0.2,1.189,1.189,0,0,0,.576-1.006,0.738,0.738,0,0,0-.234-0.586,1.436,1.436,0,0,0-.908-0.2l-6.045-.01a1.82,1.82,0,0,0-1.006.215,1.187,1.187,0,0,0-.566,1,0.743,0.743,0,0,0,.239.591,1.414,1.414,0,0,0,.9.21h2.022L328.43,132h-2.022a1.822,1.822,0,0,0-1.006.215,1.17,1.17,0,0,0-.566,1,0.735,0.735,0,0,0,.239.581,1.417,1.417,0,0,0,.9.21h6.054a1.8,1.8,0,0,0,.986-0.205,1.188,1.188,0,0,0,.577-1.006,0.735,0.735,0,0,0-.235-0.586,1.436,1.436,0,0,0-.908-0.205h-2.021l1.67-7.832h2.021Z" transform="translate(-324.844 -122.156)"/>
</svg>
