<svg xmlns="http://www.w3.org/2000/svg" width="16" height="16" viewBox="0 0 16 16">
  <defs>
    <style>
      .cls-1 {
        fill: #515151;
        fill-rule: evenodd;
      }
    </style>
  </defs>
  <path id="Link" class="cls-1" d="M605.178,129.765l-2.04-2.04a2.842,2.842,0,0,0-4.04.04l-0.863-.863a2.757,2.757,0,0,0,.863-2.05,2.7,2.7,0,0,0-.814-1.99l-2.02-2.03a2.828,2.828,0,0,0-3.991-.02l-1.441,1.432a2.675,2.675,0,0,0-.834,1.991,2.724,2.724,0,0,0,.824,2l2.04,2.04a2.842,2.842,0,0,0,4.04-.04l0.863,0.863a2.758,2.758,0,0,0-.863,2.05,2.7,2.7,0,0,0,.814,1.99l2.02,2.03a2.684,2.684,0,0,0,2,.834,2.712,2.712,0,0,0,1.991-.814l1.441-1.432a2.675,2.675,0,0,0,.834-1.991A2.724,2.724,0,0,0,605.178,129.765Zm-8.276-4.2c-0.02-.019-0.08-0.081-0.182-0.186s-0.171-.175-0.21-0.211-0.1-.085-0.187-0.147a0.792,0.792,0,0,0-.25-0.128,1.034,1.034,0,0,0-.27-0.034,0.939,0.939,0,0,0-.941.942,1.031,1.031,0,0,0,.034.269,0.792,0.792,0,0,0,.128.25c0.062,0.085.111,0.147,0.147,0.187s0.106,0.109.211,0.21l0.186,0.182a0.949,0.949,0,0,1-.706.3,0.908,0.908,0,0,1-.667-0.265l-2.039-2.04a0.907,0.907,0,0,1-.275-0.666,0.893,0.893,0,0,1,.275-0.657l1.441-1.432a0.946,0.946,0,0,1,.667-0.265,0.91,0.91,0,0,1,.667.275l2.02,2.029a0.91,0.91,0,0,1,.274.667A0.954,0.954,0,0,1,596.9,125.568Zm6.943,6.854-1.442,1.432a0.944,0.944,0,0,1-.667.255,0.9,0.9,0,0,1-.667-0.265l-2.019-2.03a0.907,0.907,0,0,1-.275-0.666,0.95,0.95,0,0,1,.324-0.716l0.181,0.186c0.1,0.105.172,0.175,0.211,0.211a2.245,2.245,0,0,0,.186.147,0.792,0.792,0,0,0,.25.128,1,1,0,0,0,.27.034,0.937,0.937,0,0,0,.941-0.941,1,1,0,0,0-.034-0.27,0.772,0.772,0,0,0-.128-0.25,2.245,2.245,0,0,0-.147-0.186c-0.036-.039-0.106-0.11-0.211-0.211l-0.186-.182a0.934,0.934,0,0,1,.706-0.313,0.909,0.909,0,0,1,.667.274l2.039,2.04a0.908,0.908,0,0,1,.275.667A0.9,0.9,0,0,1,603.845,132.422Z" transform="translate(-590 -120)"/>
</svg>
