<svg xmlns="http://www.w3.org/2000/svg" width="9" height="12" viewBox="0 0 9 12">
  <defs>
    <style>
      .cls-1 {
        fill: #515151;
        fill-rule: evenodd;
      }
    </style>
  </defs>
  <path id="Underlined" class="cls-1" d="M364.478,123.27a0.7,0.7,0,0,0,.223-0.533,0.677,0.677,0,0,0-.226-0.532,1.133,1.133,0,0,0-.759-0.2L361.782,122a1.121,1.121,0,0,0-.759.2,0.746,0.746,0,0,0,0,1.072,1.121,1.121,0,0,0,.759.2h0.532v4.311a1.359,1.359,0,0,1-.18.72,1.958,1.958,0,0,1-.741.712,2.012,2.012,0,0,1-.971.245,1.887,1.887,0,0,1-1.326-.508,1.549,1.549,0,0,1-.55-1.169v-4.311h0.532a1.12,1.12,0,0,0,.758-0.2,0.746,0.746,0,0,0,0-1.072,1.12,1.12,0,0,0-.758-0.2l-1.935.007a1.131,1.131,0,0,0-.762.2,0.681,0.681,0,0,0-.223.532,0.7,0.7,0,0,0,.223.533,0.984,0.984,0,0,0,.69.208v4.181a2.941,2.941,0,0,0,.266,1.357,3.944,3.944,0,0,0,.745.975,3.283,3.283,0,0,0,1.078.709,3.433,3.433,0,0,0,1.284.241,3.262,3.262,0,0,0,2.362-.957,3.124,3.124,0,0,0,.982-2.325v-4.181A0.982,0.982,0,0,0,364.478,123.27ZM356,132.364h9V134h-9v-1.636Z" transform="translate(-356 -122)"/>
</svg>
