<svg xmlns="http://www.w3.org/2000/svg" width="15.344" height="11.156" viewBox="0 0 15.344 11.156">
  <defs>
    <style>
      .cls-1 {
        fill: #363636;
        fill-rule: evenodd;
      }
    </style>
  </defs>
  <path id="Undo" class="cls-1" d="M987.135,124.846l-0.608-2.188a0.909,0.909,0,0,0-.419-0.54,0.9,0.9,0,0,0-.675-0.094,0.865,0.865,0,0,0-.535.406l-3.91,6.7,6.862,3.916a0.9,0.9,0,0,0,.675.095,0.863,0.863,0,0,0,.535-0.407,0.877,0.877,0,0,0,.083-0.669l-0.592-2.128c2.369-.549,5.059-0.787,7.795,1.643l-0.238-.855A8.159,8.159,0,0,0,987.135,124.846Z" transform="translate(-981 -122)"/>
</svg>
